<?xml version="1.0" encoding="UTF-8" standalone="no"?>
<svg
   xmlns:dc="http://purl.org/dc/elements/1.1/"
   xmlns:cc="http://creativecommons.org/ns#"
   xmlns:rdf="http://www.w3.org/1999/02/22-rdf-syntax-ns#"
   xmlns:svg="http://www.w3.org/2000/svg"
   xmlns="http://www.w3.org/2000/svg"
   xmlns:sodipodi="http://sodipodi.sourceforge.net/DTD/sodipodi-0.dtd"
   xmlns:inkscape="http://www.inkscape.org/namespaces/inkscape"
   inkscape:version="1.0 (6e3e5246a0, 2020-05-07)"
   sodipodi:docname="arrow1.svg"
   id="svg4"
   version="1.1"
   viewBox="0 0 512 512"
   role="img"
   class="svg-inline--fa fa-chevron-circle-right fa-w-16"
   data-icon="chevron-circle-right"
   data-prefix="fas"
   focusable="false"
   aria-hidden="true">
  <metadata
     id="metadata10">
    <rdf:RDF>
      <cc:Work
         rdf:about="">
        <dc:format>image/svg+xml</dc:format>
        <dc:type
           rdf:resource="http://purl.org/dc/dcmitype/StillImage" />
        <dc:title></dc:title>
      </cc:Work>
    </rdf:RDF>
  </metadata>
  <defs
     id="defs8" />
  <sodipodi:namedview
     inkscape:current-layer="layer1"
     inkscape:window-maximized="1"
     inkscape:window-y="27"
     inkscape:window-x="67"
     inkscape:cy="314.68195"
     inkscape:cx="225.55874"
     inkscape:zoom="1.3632812"
     showgrid="false"
     id="namedview6"
     inkscape:window-height="845"
     inkscape:window-width="1533"
     inkscape:pageshadow="2"
     inkscape:pageopacity="0"
     guidetolerance="10"
     gridtolerance="10"
     objecttolerance="10"
     borderopacity="1"
     bordercolor="#666666"
     pagecolor="#ffffff" />
  <g
     style="display:inline"
     inkscape:label="Layer 1"
     id="layer1"
     inkscape:groupmode="layer">
    <path
       style="fill:#ffffff;fill-opacity:1;opacity:0.998"
       id="path2"
       d="M 256,8 C 393,8 504,119 504,256 504,393 393,504 256,504 119,504 8,393 8,256 8,119 119,8 256,8 Z M 369.9,239 234.4,103.5 c -9.4,-9.4 -24.6,-9.4 -33.9,0 l -17,17 c -9.4,9.4 -9.4,24.6 0,33.9 L 285.1,256 183.5,357.6 c -9.4,9.4 -9.4,24.6 0,33.9 l 17,17 c 9.4,9.4 24.6,9.4 33.9,0 L 369.9,273 c 9.4,-9.4 9.4,-24.6 0,-34 z"
       fill="currentColor" />
  </g>
</svg>
